<svg xmlns="http://www.w3.org/2000/svg" width="1200" height="630" viewBox="0 0 1200 630">
  <defs>
    <linearGradient id="bg" x1="0" y1="0" x2="1" y2="1">
      <stop offset="0%" stop-color="#0a0a0f"/>
      <stop offset="100%" stop-color="#12121a"/>
    </linearGradient>
    <linearGradient id="accent-line" x1="0" y1="0" x2="1" y2="0">
      <stop offset="0%" stop-color="transparent"/>
      <stop offset="50%" stop-color="#64ffda"/>
      <stop offset="100%" stop-color="transparent"/>
    </linearGradient>
  </defs>
  <rect width="1200" height="630" fill="url(#bg)"/>
  <!-- Subtle grid pattern -->
  <g opacity="0.03">
    <line x1="0" y1="100" x2="1200" y2="100" stroke="#64ffda" stroke-width="1"/>
    <line x1="0" y1="200" x2="1200" y2="200" stroke="#64ffda" stroke-width="1"/>
    <line x1="0" y1="300" x2="1200" y2="300" stroke="#64ffda" stroke-width="1"/>
    <line x1="0" y1="400" x2="1200" y2="400" stroke="#64ffda" stroke-width="1"/>
    <line x1="0" y1="500" x2="1200" y2="500" stroke="#64ffda" stroke-width="1"/>
    <line x1="200" y1="0" x2="200" y2="630" stroke="#64ffda" stroke-width="1"/>
    <line x1="400" y1="0" x2="400" y2="630" stroke="#64ffda" stroke-width="1"/>
    <line x1="600" y1="0" x2="600" y2="630" stroke="#64ffda" stroke-width="1"/>
    <line x1="800" y1="0" x2="800" y2="630" stroke="#64ffda" stroke-width="1"/>
    <line x1="1000" y1="0" x2="1000" y2="630" stroke="#64ffda" stroke-width="1"/>
  </g>
  <!-- Accent line -->
  <rect x="200" y="295" width="800" height="2" fill="url(#accent-line)" rx="1"/>
  <!-- Main title -->
  <text x="600" y="260" font-family="Georgia, serif" font-size="72" font-weight="600" fill="#e8e6e3" text-anchor="middle">brolio.dev</text>
  <!-- Subtitle -->
  <text x="600" y="355" font-family="Georgia, serif" font-size="24" fill="#6b6979" text-anchor="middle">writing</text>
  <!-- Corner braces -->
  <text x="60" y="590" font-family="monospace" font-size="28" fill="#64ffda" opacity="0.4">{</text>
  <text x="1120" y="590" font-family="monospace" font-size="28" fill="#64ffda" opacity="0.4">}</text>
  <!-- Dot accent -->
  <circle cx="890" cy="237" r="5" fill="#64ffda"/>
</svg>
